<svg width="662" height="663" xmlns="http://www.w3.org/2000/svg" xmlns:xlink="http://www.w3.org/1999/xlink" xml:space="preserve" overflow="hidden"><defs><clipPath id="clip0"><rect x="802" y="272" width="662" height="663"/></clipPath></defs><g clip-path="url(#clip0)" transform="translate(-802 -272)"><path d="M516.949 286.52C520.464 318.309 521.219 347.557 519.233 374.176 515.393 425.984 501.16 467.915 476.527 499.598 452.649 530.308 422.713 546.362 396.015 554.643 395.499 555.18 395.002 555.703 394.486 556.239 403.628 559.45 426.149 566.222 454.079 566.222L454.099 566.222C477.434 566.222 499.069 561.76 518.823 552.849 540.371 543.184 559.714 528.283 576.715 508.204 622.227 454.39 648.906 364.901 656.042 242.179 640.061 245.41 579.151 258.849 516.949 286.52Z" fill="#00EEF5" transform="matrix(1 0 0 1.00124 802.318 246.216)"/><path d="M437.059 450.246C433.716 460.189 429.724 469.358 425.262 477.765 423.601 480.956 421.853 484.021 420.046 486.994 420.046 490.29 419.94 493.547 419.682 496.765 418.212 516.459 412.327 532.526 403.568 545.21 426.666 536.538 451.299 521.484 471.423 495.626 495.275 464.936 509.104 424.15 512.858 373.659 514.758 348.033 514.043 319.911 510.766 289.307 487.45 300.025 464.155 312.755 443.169 327.723 451.272 373.03 449.246 413.949 437.059 450.246Z" fill="#00EEF5" transform="matrix(1 0 0 1.00124 802.318 246.216)"/><path d="M510.005 282.376C506.212 250.415 499.651 215.838 490.337 178.674 479.943 184.387 448.538 202.334 412.539 228.992 426.321 261.305 436.092 291.889 441.825 320.746 463.671 305.414 487.378 292.69 510.005 282.376Z" fill="#00EEF5" transform="matrix(1 0 0 1.00124 802.318 246.216)"/><path d="M247.058 228.655C211.277 202.188 180.11 184.374 169.777 178.68 160.35 216.315 153.73 251.302 149.976 283.588 171.974 293.484 195.118 305.672 216.666 320.362 223.941 287.811 235.195 256.326 247.058 228.655Z" fill="#00EEF5" transform="matrix(1 0 0 1.00124 802.318 246.216)"/><path d="M275.054 373.765C276.544 371.111 278.033 368.482 279.543 365.914 299.495 331.728 320.348 305.996 326.326 298.833 326.088 298.595 325.876 298.357 325.658 298.118 302.858 273.227 276.848 251.077 252.56 232.746 240.2 261.649 229.29 292.882 222.406 324.367 242.358 338.567 260.669 354.958 275.054 373.765Z" fill="#00EEF5" transform="matrix(1 0 0 1.00124 802.318 246.216)"/><path d="M330.053 293.226C347.762 273.856 366.874 256.671 384.536 242.305 391.222 236.89 397.862 231.713 404.403 226.821 386.178 184.936 361.267 140.245 329.881 93.1633 319.918 107.443 284.283 160.37 255.274 226.477 261.94 231.482 268.752 236.764 275.571 242.305 293.22 256.671 312.351 273.863 330.053 293.226Z" fill="#00EEF5" transform="matrix(1 0 0 1.00124 802.318 246.216)"/><path d="M334.436 298.105C334.303 298.238 334.197 298.363 334.072 298.516 352.488 321.897 367.979 344.286 380.465 365.682 382.166 368.549 383.788 371.375 385.337 374.202 399.014 355.587 416.57 339.242 435.874 325.049 434.815 319.461 433.59 313.814 432.226 308.095 426.533 284.283 418.139 259.239 407.097 233.077 382.941 251.342 357.122 273.366 334.436 298.105Z" fill="#00EEF5" transform="matrix(1 0 0 1.00124 802.318 246.216)"/><path d="M437.145 332.119C418.291 346.266 401.556 362.339 388.746 380.451 403.112 407.415 412.558 432.69 417 456.138 418.232 462.5 419.072 468.709 419.542 474.793 423.859 466.617 427.738 457.733 430.975 448.068 442.362 414.101 444.414 375.188 437.145 332.119Z" fill="#00EEF5" transform="matrix(1 0 0 1.00124 802.318 246.216)"/><path d="M413.227 496.275C413.505 492.654 413.618 488.94 413.571 485.186 413.485 476.236 412.539 466.915 410.705 457.296 407.666 441.249 402.185 424.296 394.294 406.461 391.401 399.927 388.21 393.307 384.675 386.535 383.556 384.397 382.411 382.245 381.226 380.067 379.22 376.38 377.108 372.666 374.884 368.919 362.849 348.344 347.967 326.75 330.325 304.215 323.334 312.735 303.017 338.553 283.885 371.832 282.376 374.421 280.887 377.075 279.424 379.75 278.258 381.861 277.113 383.98 275.994 386.131 272.393 392.95 268.944 399.98 265.707 407.183 253.976 433.213 245.218 461.361 244.377 488.192 244.331 489.443 244.311 490.674 244.331 491.899 244.351 495.911 244.569 499.856 245.019 503.676 247.045 520.756 253.433 535.75 263.873 547.765 264.78 548.798 265.707 549.818 266.68 550.804 268.428 552.618 270.281 554.319 272.201 555.934 272.784 556.451 273.366 556.927 273.969 557.378 275.068 558.284 276.193 559.145 277.358 559.946 288.188 567.691 301.084 572.842 314.867 574.934 319.441 575.622 324.142 575.993 328.888 575.993L328.908 575.993C347.61 575.993 366.801 570.32 382.179 558.351 382.954 557.768 383.735 557.146 384.49 556.497 386.171 555.094 387.813 553.604 389.388 552.009 390.362 551.062 391.288 550.069 392.215 549.03 403.429 536.544 411.261 519.524 413.134 497.566 413.161 497.136 413.201 496.705 413.227 496.275Z" fill="#00EEF5" transform="matrix(1 0 0 1.00124 802.318 246.216)"/><path d="M220.982 331.278C213.197 370.21 211.9 409.288 221.955 444.665 225.815 458.19 231.23 470.761 238.194 482.413 240.544 447.28 254.996 411.023 271.645 379.981 258.147 361.644 240.611 345.465 220.982 331.278Z" fill="#00EEF5" transform="matrix(1 0 0 1.00124 802.318 246.216)"/><path d="M252.606 543.661C243.265 529.64 238.241 512.752 237.85 493.925 228.039 479.579 220.658 463.751 215.739 446.406 205.041 408.811 206.941 367.357 215.203 327.2 194.562 312.941 171.849 300.78 149.202 290.512 139.689 380.796 152.869 449.518 188.696 495.606 207.676 520.021 230.667 534.797 252.606 543.661Z" fill="#00EEF5" transform="matrix(1 0 0 1.00124 802.318 246.216)"/><path d="M260.199 553.366C234.513 544.76 206.299 528.799 183.586 499.572 146.467 451.822 132.923 380.815 143.018 287.745 81.6709 260.835 22.1902 247.72 6.4214 244.503 13.5379 367.231 40.2165 456.714 85.729 510.508 118.319 549.03 159.582 568.545 208.365 568.545 234.593 568.545 255.989 562.614 266.084 559.205 264.681 557.953 263.324 556.663 262.006 555.299 261.384 554.657 260.775 554.034 260.199 553.366Z" fill="#00EEF5" transform="matrix(1 0 0 1.00124 802.318 246.216)"/><text fill="#00EEF5" font-family="Arial,Arial_MSFontService,sans-serif" font-weight="700" font-size="5" transform="matrix(6.62 0 0 6.62818 802.318 1008)">Created by Ataur Rahman</text><text fill="#00EEF5" font-family="Arial,Arial_MSFontService,sans-serif" font-weight="700" font-size="5" transform="matrix(6.62 0 0 6.62818 802.318 1042)">from the Noun Project</text></g></svg>